<svg width="28" height="30" viewBox="0 0 28 30" fill="none" xmlns="http://www.w3.org/2000/svg">
<g id="mini_akamai.10e0eb21.svg" clip-path="url(#clip0_2_1605)">
<path id="Vector" d="M14.6366 29.6351C7.22401 29.3295 1.11965 23.6113 0.386305 16.3514C-0.386639 8.70049 4.79555 1.75107 12.3708 0.278724C13.3071 0.0939173 14.2593 0.00107223 15.2137 0.0015115C15.4739 0.0015115 15.8501 -0.0373832 15.8989 0.279432C15.9498 0.611096 15.5574 0.601905 15.3297 0.6804C9.56686 2.66828 6.01471 6.6207 5.00487 12.6451C3.8345 19.6348 8.16102 26.5942 14.8947 28.8225C15.1295 28.9003 15.365 28.9774 15.5927 29.0729C15.7221 29.1273 15.8551 29.2143 15.8325 29.3854C15.8098 29.5566 15.6578 29.5912 15.5171 29.6202C15.201 29.6845 14.882 29.6174 14.6366 29.6351Z" fill="#03AAE5"/>
<path id="Vector_2" d="M7.59331 17.1598C7.56504 17.519 7.63858 17.9277 7.65061 18.3393C7.65061 18.4652 7.68736 18.6293 7.53249 18.6766C7.36066 18.7283 7.28146 18.5684 7.22278 18.4461C6.98308 17.9204 6.80004 17.3706 6.67681 16.8062C5.10193 10.1587 9.32945 3.62932 16.0441 2.45045C19.389 1.8635 22.5183 2.46601 25.2303 4.64908C26.1313 5.35918 26.8672 6.25655 27.3872 7.27906C27.4049 7.3097 27.4198 7.34191 27.4318 7.37525C27.4756 7.5386 27.6644 7.73731 27.5166 7.8554C27.3943 7.9544 27.2422 7.74155 27.1185 7.64326C25.5485 6.39931 23.7325 5.765 21.7729 5.50123C19.6514 5.2148 17.5299 5.22399 15.4988 5.9906C11.1469 7.63051 8.54304 10.7563 7.72415 15.3437C7.62001 15.9432 7.57621 16.5515 7.59331 17.1598Z" fill="#03AAE5"/>
<path id="Vector_3" d="M27.3943 11.8602C27.1284 11.8029 26.9756 11.6693 26.8144 11.5617C24.5331 10.0463 22.0176 9.17929 19.3056 8.89358C17.0256 8.65384 14.7987 8.89358 12.6666 9.791C12.6454 9.80123 12.6234 9.80974 12.6009 9.81646C12.4736 9.85182 12.318 9.98828 12.2282 9.81646C12.161 9.68138 12.3314 9.59794 12.429 9.52298C13.9141 8.38231 15.5809 7.63482 17.4372 7.38376C20.4731 6.97291 23.241 7.61854 25.6179 9.63046C26.2847 10.1962 26.8731 10.8369 27.3066 11.6063C27.3419 11.6887 27.3711 11.7736 27.3943 11.8602Z" fill="#03AAE5"/>
</g>
<defs>
<clipPath id="clip0_2_1605">
<rect width="27.375" height="30" fill="white" transform="translate(0.310059)"/>
</clipPath>
</defs>
</svg>
