<svg width="30" height="18" viewBox="0 0 30 18" fill="none" xmlns="http://www.w3.org/2000/svg">
<g id="AWSDark.b6e2edeb.svg" clip-path="url(#clip0_2_1565)">
<path id="Vector" d="M0 12.0122C0.101514 11.7688 0.244948 11.7206 0.492167 11.8506C1.12146 12.1814 1.74165 12.5312 2.38078 12.8418C4.36462 13.8054 6.43858 14.5165 8.58731 15.011C9.90471 15.3142 11.237 15.5246 12.5832 15.6521C13.7873 15.7662 14.9938 15.8056 16.2011 15.7657C18.1359 15.7021 20.0463 15.44 21.9314 14.9958C23.528 14.6195 25.0831 14.1165 26.5985 13.488C26.7204 13.4375 26.8715 13.4127 27.0005 13.4322C27.3232 13.4804 27.4544 13.8261 27.2588 14.088C27.2001 14.1668 27.1174 14.2317 27.0366 14.2903C25.6572 15.2928 24.1422 16.0339 22.5417 16.6084C20.9716 17.172 19.357 17.5569 17.7024 17.761C17.0271 17.8442 16.3453 17.8728 15.6663 17.9269C15.6206 17.9304 15.5756 17.9398 15.5302 17.9462C15.1431 17.9462 14.7557 17.9462 14.3686 17.9462C14.3274 17.9398 14.2865 17.9281 14.2451 17.9271C13.3655 17.9091 12.4918 17.8238 11.6219 17.6956C9.98451 17.4541 8.39362 17.0347 6.85221 16.4332C4.47042 15.5036 2.31715 14.195 0.392674 12.5115C0.242927 12.3809 0.0641409 12.2706 0 12.0627C0 12.0458 0 12.0292 0 12.0122Z" fill="#FFA302"/>
<path id="Vector_2" d="M25.9341 0.0174561C26.1995 0.0578598 26.4669 0.0891726 26.7301 0.140687C27.1308 0.218969 27.5258 0.319727 27.8879 0.519977C28.1495 0.664673 28.2798 0.877298 28.2615 1.18007C28.2538 1.31012 28.2636 1.44118 28.2589 1.57123C28.2488 1.84522 28.1108 1.9437 27.8508 1.85405C27.5768 1.75936 27.3123 1.63259 27.0338 1.55659C26.3058 1.35785 25.568 1.31037 24.8263 1.48638C24.7288 1.50961 24.6348 1.54951 24.5413 1.58764C23.791 1.89321 23.7498 2.94697 24.3767 3.35026C24.6922 3.55329 25.0358 3.68384 25.3876 3.80025C25.9943 4.001 26.6068 4.18585 27.2052 4.40858C27.673 4.58257 28.077 4.86338 28.3644 5.28736C29.0459 6.29342 28.8181 7.74997 27.8616 8.553C27.3348 8.99517 26.7181 9.22875 26.053 9.33127C24.9212 9.50576 23.8234 9.34491 22.7616 8.92774C22.6377 8.879 22.523 8.80425 22.4091 8.73329C22.2409 8.62849 22.1722 8.4646 22.1675 8.2732C22.163 8.09239 22.163 7.91133 22.1672 7.73026C22.1733 7.4775 22.3048 7.37977 22.5507 7.452C22.6834 7.49087 22.8116 7.54643 22.9397 7.59997C23.7465 7.93784 24.5895 8.05981 25.4579 8.01233C25.8163 7.99264 26.1669 7.92068 26.4877 7.74441C26.9651 7.48179 27.1803 6.9871 27.0406 6.47094C26.9773 6.23684 26.847 6.04114 26.6354 5.92953C26.3651 5.7871 26.0856 5.65554 25.7975 5.55579C25.2415 5.36337 24.6722 5.20883 24.1161 5.01589C23.4884 4.79797 22.9578 4.44141 22.6091 3.85353C21.9819 2.79572 22.2252 1.51214 23.1941 0.753056C23.7528 0.315433 24.3929 0.102051 25.0906 0.0366479C25.1277 0.0331125 25.1647 0.0240217 25.2015 0.0177086C25.4459 0.0174561 25.6899 0.0174561 25.9341 0.0174561Z" fill="black"/>
<path id="Vector_3" d="M29.9997 12.2901C29.9585 12.5853 29.9339 12.8837 29.8732 13.1749C29.6627 14.1842 29.2872 15.1254 28.6467 15.9431C28.4587 16.1832 28.2271 16.3895 28.0151 16.611C28.0036 16.6231 27.9893 16.6327 27.9755 16.6423C27.8447 16.7342 27.7129 16.7539 27.6382 16.686C27.5316 16.589 27.5819 16.4792 27.6203 16.3711C27.8805 15.638 28.1522 14.9087 28.3947 14.1696C28.4894 13.8804 28.5208 13.5698 28.5745 13.2681C28.5884 13.1906 28.5818 13.1085 28.5789 13.0287C28.5682 12.7461 28.4297 12.5524 28.1522 12.4926C27.8904 12.4363 27.623 12.3863 27.3564 12.3739C26.6531 12.3413 25.9528 12.406 25.2543 12.4843C25.0539 12.5067 24.8531 12.5279 24.6523 12.5486C24.5496 12.5593 24.4397 12.5681 24.3858 12.4572C24.3286 12.339 24.3907 12.2307 24.48 12.1683C24.6897 12.0221 24.9033 11.8762 25.1322 11.7643C25.8925 11.3926 26.7061 11.2373 27.5472 11.1971C28.1562 11.1681 28.7576 11.2065 29.3505 11.3517C29.4281 11.3706 29.5026 11.4009 29.5793 11.4229C29.8451 11.4994 29.9723 11.6795 29.9793 11.9519C29.9803 11.989 29.9929 12.0257 30 12.0625C29.9997 12.1385 29.9997 12.2143 29.9997 12.2901Z" fill="#FFA302"/>
<path id="Vector_4" d="M12.8912 7.25787C12.9606 6.96544 13.0303 6.67303 13.0993 6.38035C13.5366 4.52682 13.9735 2.67331 14.4116 0.820042C14.5202 0.360702 14.6364 0.26954 15.1109 0.271056C15.3927 0.271813 15.6742 0.277117 15.9558 0.285449C16.1858 0.292268 16.3202 0.426105 16.3762 0.637971C16.4528 0.926353 16.5207 1.21701 16.5894 1.50741C17.0378 3.40563 17.4858 5.30435 17.9337 7.20256C17.9442 7.24676 17.9568 7.2907 17.9775 7.36999C18.0002 7.30282 18.0152 7.2667 18.0248 7.22933C18.573 5.10865 19.121 2.98794 19.6692 0.867262C19.6847 0.806153 19.7025 0.745546 19.7234 0.686203C19.8384 0.363478 19.9575 0.276107 20.303 0.271308C20.5934 0.267267 20.8839 0.268026 21.1739 0.271308C21.405 0.273834 21.4865 0.361458 21.4688 0.592012C21.462 0.683174 21.4418 0.775343 21.4146 0.86297C20.6177 3.42028 19.8194 5.97682 19.0207 8.53362C18.9905 8.62983 18.9555 8.72452 18.9216 8.81947C18.8456 9.03335 18.6829 9.13208 18.4669 9.13639C18.1176 9.14346 17.7684 9.14093 17.4192 9.13664C17.1878 9.13386 17.0361 9.00936 16.9777 8.79094C16.882 8.43387 16.7982 8.07326 16.7116 7.71368C16.2823 5.93187 15.8538 4.14956 15.425 2.36775C15.4202 2.34806 15.4144 2.32861 15.3874 2.30639C15.3452 2.4781 15.302 2.64931 15.2609 2.82129C14.8043 4.73061 14.3482 6.6402 13.8919 8.54977C13.7704 9.05785 13.6715 9.13563 13.146 9.13589C12.927 9.13589 12.7083 9.13639 12.4894 9.13589C12.0748 9.13488 11.9551 9.05558 11.8291 8.65634C11.6253 8.01089 11.4313 7.36215 11.2344 6.71443C10.6566 4.81571 10.0791 2.91699 9.50257 1.01802C9.46116 0.881404 9.42101 0.743273 9.39474 0.603375C9.35837 0.40969 9.44523 0.279389 9.6268 0.276358C10.0008 0.269793 10.3753 0.278631 10.7495 0.285197C10.945 0.288733 11.0806 0.392519 11.1359 0.574588C11.2374 0.908172 11.3301 1.24453 11.4162 1.58216C11.8902 3.43972 12.3609 5.29803 12.8331 7.1561C12.8419 7.1907 12.8556 7.22377 12.8669 7.25761C12.8758 7.25761 12.8833 7.25761 12.8912 7.25787Z" fill="black"/>
<path id="Vector_5" d="M6.79218 4.16158C6.78131 3.6247 6.82602 3.10401 6.70354 2.58886C6.54925 1.94037 6.12728 1.59644 5.48865 1.48761C4.66542 1.3472 3.86341 1.44392 3.07731 1.70831C2.87024 1.77801 2.6662 1.8573 2.46065 1.93104C2.37377 1.96235 2.28716 1.99568 2.19803 2.01993C1.94777 2.08835 1.84096 2.00679 1.83717 1.74543C1.83438 1.56462 1.84398 1.38331 1.83489 1.20276C1.82277 0.961599 1.92758 0.792661 2.14171 0.701248C2.46217 0.564633 2.78338 0.425492 3.11392 0.318171C3.83312 0.0845862 4.57603 0.00504156 5.33033 0.0411523C5.7384 0.0608491 6.14142 0.116404 6.53486 0.234586C7.52854 0.532815 8.12298 1.20326 8.33106 2.20502C8.41237 2.5972 8.44443 3.00502 8.45125 3.40654C8.46792 4.39087 8.45402 5.3757 8.45884 6.3603C8.45983 6.5868 8.48005 6.81407 8.50302 7.03957C8.54191 7.42416 8.71363 7.76357 8.88433 8.10194C9.02397 8.37846 8.98811 8.52694 8.73206 8.70068C8.551 8.82365 8.36919 8.94511 8.18585 9.06431C7.91263 9.24208 7.73029 9.22945 7.52575 8.97138C7.3442 8.74209 7.19697 8.48552 7.03813 8.23856C6.99344 8.16911 6.96161 8.09109 6.91666 8.0032C6.8793 8.03882 6.85178 8.06229 6.82778 8.0888C6.15229 8.83678 5.32173 9.26885 4.30912 9.34688C3.81972 9.38451 3.33918 9.3537 2.87908 9.18577C1.96267 8.85168 1.43768 8.18578 1.28338 7.22796C1.19677 6.6911 1.23187 6.1608 1.43717 5.65272C1.74146 4.8997 2.31217 4.41991 3.05509 4.13632C3.6662 3.90325 4.30457 3.85198 4.95431 3.89137C5.53537 3.92648 6.10633 4.02243 6.67298 4.1497C6.70455 4.15729 6.73839 4.15678 6.79218 4.16158ZM5.00962 5.09364C4.67981 5.08631 4.32805 5.10778 3.98816 5.22115C3.49195 5.38655 3.14575 5.70525 3.05357 6.23175C3.01089 6.47569 3.01443 6.73554 3.04347 6.98276C3.10685 7.52013 3.47326 7.90144 4.00835 7.99209C4.69396 8.10825 5.34269 7.97997 5.93057 7.60952C6.37173 7.3315 6.68106 6.94134 6.75203 6.40927C6.7942 6.09387 6.79167 5.77266 6.81566 5.45449C6.82424 5.34237 6.77777 5.30044 6.67349 5.27873C6.13258 5.16712 5.58866 5.08858 5.00962 5.09364Z" fill="black"/>
</g>
<defs>
<clipPath id="clip0_2_1565">
<rect width="30" height="17.9651" fill="white" transform="translate(0 0.0174561)"/>
</clipPath>
</defs>
</svg>
