<svg width="26" height="31" viewBox="0 0 26 31" fill="none" xmlns="http://www.w3.org/2000/svg">
<g id="cloudFormation.bb2218c5.svg" clip-path="url(#clip0_5_1955)">
<path id="Vector" d="M12.6251 0.27002C13.2513 0.501407 13.8253 0.841819 14.4196 1.13932C17.4858 2.67263 20.5467 4.21637 23.6094 5.75665C23.9634 5.93468 24.3088 6.1307 24.6703 6.29133C24.9036 6.39515 24.9866 6.52794 24.9861 6.79239C24.9768 11.8557 24.9791 16.9184 24.9791 21.9816C24.9791 22.5998 24.9745 23.2186 24.9826 23.8368C24.9849 24.0026 24.9292 24.0885 24.7759 24.1651C20.8148 26.1547 16.8566 28.1508 12.8973 30.1446C12.8125 30.1875 12.7185 30.2119 12.6291 30.2443C12.6268 30.1382 12.6228 30.0321 12.6228 29.926C12.6222 25.4368 12.6222 20.9482 12.6228 16.4591C12.6228 11.0629 12.6239 5.66677 12.6251 0.27002ZM16.2902 9.14919C16.2461 9.14509 16.1921 9.13179 16.1869 9.19497C16.1857 9.21297 16.2345 9.23501 16.2606 9.2547C16.26 12.0795 16.2588 14.9049 16.2594 17.7297C16.26 18.9637 16.2641 20.1978 16.267 21.4319C16.2675 21.9138 16.2734 22.3957 16.267 22.877C16.2641 23.076 16.3233 23.1316 16.5235 23.0707C17.3604 22.8156 18.202 22.5737 19.0406 22.3226C19.9808 22.0414 20.9228 21.7665 21.8572 21.4678C22.3209 21.3194 22.809 21.2428 23.2449 21.0097C23.3465 20.9992 23.3633 20.9302 23.3616 20.8444C23.3593 20.729 23.3604 20.613 23.3604 20.497C23.3604 16.9288 23.3598 13.3605 23.361 9.79229C23.361 9.61367 23.383 9.42985 23.1236 9.42175C22.4417 9.21588 21.7609 9.00824 21.0783 8.80411C19.5479 8.34596 18.0157 7.89191 16.4869 7.42798C16.2977 7.37058 16.2693 7.43782 16.2716 7.59845C16.2786 8.10994 16.2797 8.62088 16.2832 9.13234L16.2902 9.14919Z" fill="#699D2B"/>
<path id="Vector_2" d="M12.6249 0.269922C12.6238 5.66608 12.6226 11.0628 12.6215 16.459C12.6209 20.9481 12.6215 25.4367 12.6215 29.9259C12.6215 30.032 12.6255 30.1381 12.6279 30.2442C12.3353 30.2025 12.102 30.0233 11.849 29.8963C8.08173 28.0028 4.31736 26.1019 0.55068 24.2061C0.364378 24.1122 0.269775 24.0118 0.269775 23.7746C0.279062 18.1065 0.279062 12.4378 0.271517 6.76965C0.270936 6.51914 0.355672 6.40607 0.575056 6.29588C4.50715 4.32124 8.43458 2.33618 12.3643 0.35633C12.4445 0.315736 12.5129 0.220049 12.6249 0.269922ZM2.00802 9.52487C1.85132 9.55326 1.88846 9.67794 1.88846 9.77711C1.8873 13.4445 1.88672 17.1114 1.88904 20.7788C1.88904 20.8646 1.84087 20.9829 1.98654 21.0131C2.0382 21.0363 2.08869 21.0653 2.14267 21.0821C3.3696 21.4538 4.59711 21.825 5.82461 22.1944C6.78458 22.4837 7.74801 22.7633 8.70448 23.0631C8.95866 23.1426 9.02772 23.0846 9.01847 22.8265C9.00103 22.3544 9.00859 21.8812 9.00626 21.4086C9.00799 18.172 9.00918 14.9361 9.01091 11.6995C9.0115 10.8494 9.01555 9.99983 9.01788 9.14964C9.0202 8.6376 9.01902 8.1261 9.02658 7.61402C9.0289 7.43831 8.99583 7.36815 8.79444 7.43079C8.43923 7.54154 8.07476 7.61229 7.72014 7.74043C6.99872 8.00024 6.25526 8.20323 5.51818 8.41256C4.3812 8.73499 3.26048 9.11023 2.11945 9.41527C2.05503 9.43322 2.0144 9.45645 2.00802 9.52487Z" fill="#476224"/>
<path id="Vector_3" d="M19.9477 20.548C19.946 17.0303 19.9436 13.513 19.9419 9.99525C19.968 9.98304 19.9936 9.96277 20.0208 9.95927C20.9715 9.83576 21.9221 9.71222 22.8734 9.59391C22.9941 9.57888 23.1119 9.5858 23.1235 9.42285C23.383 9.43096 23.3609 9.61482 23.3609 9.79344C23.3598 13.3617 23.3603 16.9299 23.3603 20.4981C23.3603 20.6141 23.3592 20.7296 23.3615 20.8455C23.3632 20.9308 23.3464 20.9998 23.2449 21.0108C23.0748 20.9836 22.9053 20.9522 22.7347 20.929C21.8061 20.8009 20.8769 20.6744 19.9477 20.548Z" fill="#476224"/>
<path id="Vector_4" d="M23.1235 9.42296C23.1124 9.58591 22.994 9.57894 22.8733 9.59402C21.9221 9.71232 20.9714 9.83583 20.0207 9.95937C19.9935 9.96283 19.9679 9.98315 19.9418 9.99531C18.7219 9.70768 17.5025 9.42063 16.2825 9.133C16.279 8.6215 16.2778 8.11056 16.2709 7.59911C16.2686 7.43903 16.297 7.3712 16.4862 7.4286C18.0149 7.89253 19.5471 8.34662 21.0776 8.80473C21.7602 9.00945 22.4415 9.2165 23.1235 9.42296Z" fill="#384B24"/>
<path id="Vector_5" d="M19.9477 20.5481C20.8769 20.6745 21.8055 20.8009 22.7347 20.9285C22.9053 20.9517 23.0748 20.9831 23.2448 21.0103C22.809 21.2429 22.3209 21.32 21.8572 21.4684C20.9228 21.7671 19.9808 22.0425 19.0406 22.3232C18.2019 22.5743 17.3604 22.8156 16.5235 23.0714C16.3232 23.1322 16.264 23.0765 16.2669 22.8777C16.2733 22.3957 16.2675 21.9138 16.2669 21.4325C17.3708 21.1605 18.4747 20.8873 19.5792 20.6171C19.7005 20.5875 19.8253 20.5707 19.9477 20.5481Z" fill="#B1C998"/>
<path id="Vector_6" d="M16.2901 9.14925C16.2802 9.18461 16.2704 9.22 16.2605 9.25481C16.2344 9.23449 16.1851 9.21303 16.1868 9.19508C16.192 9.13185 16.246 9.1452 16.2901 9.14925Z" fill="#B1C998"/>
<path id="Vector_7" d="M5.31732 10.001C5.3144 12.8792 5.31149 15.7579 5.30858 18.636C5.30803 19.2734 5.30744 19.9113 5.30744 20.5486C4.84485 20.5474 4.39855 20.6715 3.94353 20.7284C3.28944 20.8096 2.63245 20.8733 1.98649 21.0131C1.84081 20.9824 1.88898 20.8646 1.88898 20.7788C1.88666 17.1114 1.88724 13.4446 1.8884 9.77719C1.8884 9.67801 1.85184 9.55333 2.00796 9.5249C2.44557 9.58581 2.88375 9.64494 3.32078 9.70817C3.98706 9.80443 4.65217 9.9036 5.31732 10.001Z" fill="#699D2B"/>
<path id="Vector_8" d="M5.3174 10.0011C4.6517 9.9031 3.98658 9.80393 3.32088 9.70822C2.88327 9.64503 2.44566 9.58586 2.00806 9.52499C2.01444 9.45657 2.05507 9.43334 2.11949 9.41598C3.26052 9.11094 4.38182 8.73571 5.51819 8.41327C6.25528 8.20394 6.99878 8.00095 7.72019 7.74114C8.07478 7.61359 8.43928 7.54225 8.79446 7.43146C8.99584 7.36882 9.02896 7.43902 9.02664 7.61473C9.01907 8.12622 9.02021 8.63831 9.01789 9.15035C8.42475 9.22342 7.85425 9.39913 7.27446 9.53137C6.62033 9.67984 5.96975 9.84393 5.3174 10.0011Z" fill="#384B24"/>
<path id="Vector_9" d="M1.98657 21.0131C2.63254 20.8733 3.28953 20.8095 3.94362 20.7283C4.39864 20.6721 4.84494 20.548 5.30752 20.5486C5.89601 20.6883 6.4851 20.8252 7.07245 20.9696C7.63251 21.107 8.18971 21.2549 8.74978 21.393C8.83159 21.4132 8.92041 21.404 9.00628 21.4086C9.0092 21.8812 9.00109 22.3544 9.01849 22.8265C9.02778 23.0846 8.95868 23.1425 8.7045 23.0631C7.74744 22.7633 6.7846 22.4838 5.82463 22.1944C4.59713 21.825 3.36962 21.4538 2.14269 21.0821C2.08814 21.0659 2.03822 21.0363 1.98657 21.0131Z" fill="#B1C998"/>
</g>
<defs>
<clipPath id="clip0_5_1955">
<rect width="24.92" height="29.9885" fill="white" transform="translate(0.269775 0.255859)"/>
</clipPath>
</defs>
</svg>
