<svg width="26" height="28" viewBox="0 0 26 28" fill="none" xmlns="http://www.w3.org/2000/svg">
<path id="Vector" d="M24.2393 13.8519L16.5405 15.2544C16.3441 15.5068 15.8813 15.9275 15.6569 16.0397C14.6893 16.5305 14.0303 16.3903 13.4553 16.236C13.0907 16.1378 12.8803 16.0958 12.5718 15.9556L10.6926 16.2079L11.8285 25.7299L25.0247 23.3458L24.2393 13.8519ZM12.4876 24.8324L12.3755 23.7946L14.5351 20.5132L16.9752 21.2283L19.0787 17.7085L21.6029 19.3773L23.5242 15.3526L24.2113 22.6727L12.4876 24.8324ZM11.9407 15.4787C10.9871 14.8617 10.0055 13.9923 9.57076 13.5014C9.50065 13.4453 9.51467 13.2069 9.51467 13.2069C9.90733 13.5154 11.52 14.6654 13.2169 15.1843C13.8198 15.3665 14.7454 15.4367 15.5448 14.9878C16.1619 14.6373 16.891 14.0343 17.3257 13.4173L17.4099 13.5575C17.4099 13.6557 17.1996 14.1044 17.1013 14.2868C17.2837 14.3989 17.4239 14.427 17.6342 14.483L19.0507 14.2587C19.5555 13.4453 19.9201 12.1271 19.5274 10.865C19.303 10.1498 18.1531 8.70538 18.0689 8.63527C17.7744 8.3548 18.1111 7.28901 17.5501 6.11104C16.9471 4.87697 15.3624 3.58681 14.6753 3.01185C14.8717 3.15209 16.1197 3.65693 16.6948 4.35811C16.7508 4.28799 16.7788 3.90936 16.8209 3.81119C16.3161 3.16612 16.288 2.00216 16.288 1.69365C16.288 1.11868 15.9936 0.473599 15.9936 0.473599C15.9936 0.473599 16.4983 0.866267 16.6245 1.55341C16.7788 2.35275 17.1013 2.99783 17.536 3.53073C18.3495 4.54042 19.0787 5.05927 19.4573 4.68064C19.906 4.23189 19.0086 2.22653 17.8727 1.10466C16.5405 -0.199522 16.1898 -0.0312377 15.4185 0.249231C14.8014 0.459578 14.465 2.24057 12.8382 2.19849C12.5578 2.17045 11.8566 2.14239 11.506 2.15643C11.6883 1.904 11.8426 1.70767 11.8426 1.70767C11.8426 1.70767 11.2956 1.93204 10.8329 2.21251L10.7908 2.15643C10.9451 1.81986 11.1133 1.62353 11.1133 1.62353C11.1133 1.62353 10.6786 1.88998 10.286 2.19849C10.3561 1.80584 10.6365 1.55341 10.6365 1.55341C10.6365 1.55341 10.0896 1.65157 9.38845 2.42287C8.58913 2.63322 8.40682 2.78748 7.76174 3.06795C6.72399 2.84357 6.2472 2.47896 5.78442 1.80584C5.43384 1.30098 4.80278 1.21684 4.1577 1.48329C3.21813 1.87596 2.04016 2.39481 2.04016 2.39481C2.04016 2.39481 2.43281 2.38079 2.82548 2.39481C2.27856 2.60518 1.74567 2.88565 1.74567 2.88565C1.74567 2.88565 1.99808 2.87161 2.32062 2.88565C2.09626 3.06795 1.98406 3.15209 1.77371 3.29232C1.26886 3.65693 0.862183 4.07764 0.862183 4.07764C0.862183 4.07764 1.19875 3.92338 1.50726 3.83924C1.29691 4.33005 0.862183 4.69466 0.946325 5.29768C1.01645 5.84459 1.68957 6.9805 2.57305 7.68167C2.64317 7.73777 3.83517 8.84562 4.73266 8.39687C5.63016 7.94811 5.98075 7.54144 6.13501 6.9244C6.3033 6.2092 6.20514 5.67631 5.84052 4.13373C5.7143 3.62889 5.40579 2.57712 5.25153 2.0863L5.27957 2.05826C5.57408 2.67528 6.31732 4.31603 6.62583 5.40986C7.10263 7.12073 6.94838 7.99019 6.73801 8.31273C6.07891 9.26633 4.41013 9.40656 3.65286 8.87366C3.54066 10.7107 3.94735 11.5241 4.08758 11.9308C4.01747 12.3936 4.32598 13.277 4.32598 13.277C4.32598 13.277 4.35402 12.8844 4.49427 12.674C4.53633 13.1368 4.76071 13.6977 4.76071 13.6977C4.76071 13.6977 4.74669 13.3612 4.85888 13.0667C5.01312 13.3191 5.12533 13.3752 5.26555 13.5715C5.40579 14.0763 5.68626 14.441 5.68626 14.441C5.68626 14.441 5.64418 14.1745 5.65822 13.8941C6.35938 14.5672 6.47157 15.5488 6.54169 16.292C6.73801 18.3535 3.28825 19.9942 2.61511 21.2845C2.11028 22.0418 1.80175 23.2617 2.65719 23.9769C4.73266 25.7018 3.93333 26.1786 4.97106 26.9359C6.40146 27.9736 8.18244 27.5109 8.78545 26.6695C9.62686 25.4915 9.41651 24.3837 9.09396 23.3458C8.84154 22.5325 8.18244 21.1863 7.35505 20.6675C6.51365 20.1346 5.68626 20.0364 4.9991 20.1065L5.06922 20.0364C6.06489 19.8401 7.11666 19.9522 7.87393 20.429C8.72935 20.976 9.51467 21.9295 9.92135 23.3739C10.3841 23.3038 10.4542 23.2757 10.875 23.2197L9.90732 15.7031L11.9407 15.4787ZM16.7508 6.12506C17.6342 6.53175 17.5221 7.31706 17.536 7.77983C17.5501 7.90605 17.536 8.00421 17.5221 8.0603C17.3958 7.99019 17.2136 7.94811 16.9051 7.96214C16.8209 7.96214 16.7227 7.97616 16.6386 7.99019C16.3161 7.82191 16.1197 7.47132 15.9375 7.10671C15.9234 7.07867 15.9094 7.03659 15.8953 7.00855C15.8953 6.99453 15.8813 6.98049 15.8813 6.96647V6.95245C15.7832 6.64394 15.8533 6.57381 15.8953 6.48967C15.9375 6.40553 16.0916 6.30737 15.8672 6.23725C15.8533 6.23725 15.8252 6.22323 15.7971 6.22323C15.9514 6.0269 16.4142 5.9708 16.7508 6.12506ZM15.6569 11.2577C15.8252 11.1314 16.6106 10.879 17.3398 10.7809C17.7184 10.7388 18.2653 10.7107 18.3774 10.7809C18.6018 10.9071 18.6018 11.2997 18.4476 11.6643C18.2232 12.1972 17.9008 12.7722 17.5221 12.8143C16.9191 12.8984 16.3581 12.5759 15.713 12.085C15.4886 11.9168 15.3484 11.4961 15.6569 11.2577ZM9.99147 7.26097C10.9451 6.61589 12.1651 6.8683 11.9547 7.06463C11.5621 7.44328 12.081 7.33108 12.1371 8.01824C12.1791 8.52307 12.0108 8.80354 11.8706 8.9578C11.5761 8.99988 11.2115 9.06999 10.7768 9.21023C10.5244 9.29437 10.3 9.37851 10.1037 9.47668C10.0476 9.44864 9.99147 9.40656 9.93537 9.35047C9.27627 8.76148 9.30431 7.73777 9.99147 7.26097Z" fill="#6B27AB"/>
</svg>
