<svg width="30" height="26" viewBox="0 0 30 26" fill="none" xmlns="http://www.w3.org/2000/svg">
<g id="Google.f5f8e511.svg" clip-path="url(#clip0_2_1638)">
<path id="Vector" d="M29.8613 15.6311C29.8613 16.2154 29.8613 16.7998 29.8613 17.3841C29.7708 17.4377 29.8011 17.5317 29.7894 17.6093C29.1724 21.6528 26.0155 24.6459 21.9562 24.8619C19.636 24.9854 17.3038 24.8859 14.9768 24.8869C14.9723 23.1662 14.9679 21.4454 14.9634 19.7248C15.0989 19.7209 15.2343 19.7142 15.3698 19.7142C17.4052 19.7129 19.4409 19.7287 21.476 19.7065C23.1553 19.6885 24.5431 18.4011 24.6607 16.8036C24.7902 15.0461 23.6718 13.5946 21.9581 13.2958C21.4526 13.2077 21.4522 13.2077 21.4447 12.6816C21.4151 10.6243 20.6493 8.91456 19.0447 7.6006C19.0867 7.47568 19.1932 7.40295 19.2799 7.31576C20.4065 6.18173 21.5346 5.04912 22.6623 3.91626C22.7424 3.92258 22.7895 3.98084 22.8426 4.03005C24.3892 5.4621 25.4828 7.18142 26.1037 9.19512C26.1814 9.44727 26.3057 9.6258 26.5159 9.78663C28.1021 11 29.1473 12.5742 29.6219 14.5183C29.7115 14.8867 29.7818 15.26 29.8613 15.6311Z" fill="#4C90F4"/>
<path id="Vector_2" d="M3.8011 9.56875C3.65913 9.48918 3.75538 9.38584 3.78146 9.29853C4.42102 7.16661 5.58927 5.37147 7.25306 3.89912C9.07171 2.28973 11.1983 1.35877 13.6043 1.0543C13.6799 1.04474 13.7771 1.08259 13.8246 0.981445C14.5555 0.981445 15.2862 0.981445 16.0171 0.981445C16.0663 1.08169 16.1628 1.04022 16.2381 1.04939C18.674 1.34624 20.8232 2.28353 22.662 3.91604C21.5343 5.04892 20.4062 6.18153 19.2796 7.31554C19.193 7.40275 19.0864 7.47561 19.0445 7.60038C18.9656 7.5509 18.8835 7.50609 18.8086 7.45118C16.0914 5.45994 12.4411 5.81648 10.1681 8.29625C9.25941 8.14422 8.34858 8.09731 7.43067 8.21422C6.1136 8.38202 4.91796 8.86811 3.8011 9.56875Z" fill="#EB4C3D"/>
<path id="Vector_3" d="M7.17692 19.4553C7.90185 19.747 8.6627 19.7241 9.42381 19.7222C11.2704 19.7175 13.1168 19.7233 14.9635 19.7248C14.968 21.4456 14.9724 23.1662 14.9769 24.8869C12.6613 24.885 10.3443 24.9275 8.03013 24.8665C6.34284 24.8218 4.81586 24.2194 3.46985 23.1871C3.86423 22.7889 4.25822 22.3905 4.65323 21.9931C5.49403 21.1467 6.33561 20.3011 7.17692 19.4553Z" fill="#3DB15E"/>
<path id="Vector_4" d="M7.17701 19.4554C6.33569 20.3013 5.49411 21.1469 4.65317 21.9931C4.25816 22.3905 3.86417 22.7891 3.46979 23.1871C2.49479 22.5195 1.75526 21.6359 1.18611 20.6149C-0.903551 16.8665 0.114736 12.2775 3.58387 9.74403C3.65893 9.68925 3.7288 9.62739 3.80114 9.56886C4.91799 8.86835 6.11363 8.38226 7.43084 8.21446C8.34875 8.09756 9.25957 8.14446 10.1683 8.29649C11.6754 8.6255 13.0186 9.27887 14.1669 10.3167C14.508 10.6249 14.822 10.9588 15.1106 11.3171C15.1844 11.4088 15.22 11.4721 15.1161 11.5764C13.9168 12.7806 12.7224 13.9894 11.5031 15.2208C11.2742 14.8474 11.0848 14.5165 10.8039 14.252C9.81541 13.3213 8.66574 13.0494 7.39763 13.5162C6.1657 13.9697 5.44102 14.8976 5.31507 16.2043C5.18112 17.5937 5.78153 18.6439 6.98751 19.3469C7.05029 19.3835 7.11371 19.4193 7.17701 19.4554Z" fill="#FAC305"/>
</g>
<defs>
<clipPath id="clip0_2_1638">
<rect width="30" height="24.0373" fill="white" transform="translate(0 0.981445)"/>
</clipPath>
</defs>
</svg>
