<svg width="30" height="30" viewBox="0 0 30 30" fill="none" xmlns="http://www.w3.org/2000/svg">
<g id="githubDark.4b3e063e.svg" clip-path="url(#clip0_2_1616)">
<path id="Vector" d="M14.9292 0.967773C6.68509 0.967773 0 7.40916 0 15.3552C0 21.7121 4.27766 27.105 10.2095 29.0076C10.9556 29.1407 11.2296 28.6955 11.2296 28.3154C11.2296 27.9724 11.2157 26.8389 11.2094 25.6367C7.0559 26.507 6.17952 23.9392 6.17952 23.9392C5.5004 22.2762 4.52192 21.8341 4.52192 21.8341C3.16744 20.9411 4.62402 20.9594 4.62402 20.9594C6.12319 21.0609 6.9126 22.4421 6.9126 22.4421C8.24412 24.6416 10.4051 24.0057 11.257 23.6382C11.391 22.7081 11.7779 22.0735 12.2048 21.7143C8.8889 21.3504 5.403 20.1167 5.403 14.6039C5.403 13.0331 5.98621 11.7496 6.94127 10.7421C6.78627 10.3796 6.2753 8.91635 7.08588 6.93456C7.08588 6.93456 8.33954 6.54787 11.1925 8.40937C12.3833 8.09048 13.6605 7.9307 14.9292 7.92528C16.198 7.9307 17.4761 8.09048 18.6692 8.40937C21.5188 6.54787 22.7707 6.93456 22.7707 6.93456C23.5832 8.91635 23.0721 10.3796 22.917 10.7421C23.8742 11.7496 24.4534 13.033 24.4534 14.6039C24.4534 20.1298 20.961 21.3466 17.6366 21.7028C18.1721 22.1493 18.6492 23.0249 18.6492 24.3671C18.6492 26.2921 18.6319 27.8415 18.6319 28.3154C18.6319 28.6982 18.9006 29.147 19.6574 29.0057C25.5861 27.1012 29.8582 21.71 29.8582 15.3552C29.8582 7.40916 23.1742 0.967773 14.9292 0.967773Z" fill="black"/>
<path id="Vector_2" d="M5.59298 21.4644C5.56019 21.5359 5.44334 21.5573 5.33713 21.5083C5.22884 21.4614 5.16795 21.3639 5.20307 21.2921C5.23528 21.2186 5.35213 21.198 5.4602 21.2474C5.56874 21.2943 5.63055 21.3927 5.59298 21.4644ZM6.32732 22.0959C6.25615 22.1595 6.11694 22.13 6.02244 22.0294C5.92479 21.9291 5.90653 21.795 5.97877 21.7304C6.05217 21.6669 6.18717 21.6965 6.28506 21.797C6.3827 21.8984 6.40179 22.0316 6.32732 22.0959ZM6.83115 22.9038C6.73958 22.9651 6.58994 22.9076 6.49757 22.7797C6.40612 22.6518 6.40612 22.4984 6.49956 22.4369C6.59229 22.3754 6.73958 22.4307 6.83326 22.5576C6.92459 22.6877 6.92471 22.8411 6.83115 22.9038ZM7.68306 23.8396C7.60121 23.9264 7.42699 23.9032 7.29937 23.7845C7.16895 23.6685 7.13253 23.5039 7.2146 23.4169C7.29739 23.3298 7.47265 23.3542 7.60121 23.4719C7.73084 23.5877 7.77028 23.7536 7.68306 23.8396ZM8.78413 24.1555C8.74818 24.2681 8.58028 24.3193 8.41121 24.2715C8.24239 24.2222 8.13185 24.0902 8.16591 23.9763C8.20104 23.8629 8.36965 23.8095 8.54002 23.8608C8.70862 23.9099 8.81926 24.0409 8.78413 24.1555ZM10.0374 24.2894C10.0416 24.4082 9.8982 24.5066 9.72071 24.5087C9.54214 24.5124 9.39778 24.4164 9.39591 24.2997C9.39591 24.1799 9.53607 24.0824 9.71449 24.0796C9.892 24.0762 10.0374 24.1716 10.0374 24.2894ZM11.2684 24.244C11.2898 24.3598 11.1663 24.4787 10.9901 24.5103C10.8168 24.5407 10.6564 24.4693 10.6343 24.3545C10.6128 24.2359 10.7385 24.117 10.9115 24.0862C11.088 24.0567 11.246 24.1263 11.2684 24.244Z" fill="black"/>
</g>
<defs>
<clipPath id="clip0_2_1616">
<rect width="30" height="28.0645" fill="white" transform="translate(0 0.967773)"/>
</clipPath>
</defs>
</svg>
