<svg width="30" height="30" viewBox="0 0 30 30" fill="none" xmlns="http://www.w3.org/2000/svg">
<g id="kubernetesDark.d92572ab.svg" clip-path="url(#clip0_2_1578)">
<path id="Vector" d="M14.7827 25.8696C20.7857 25.8696 25.6522 21.0032 25.6522 15.0001C25.6522 8.99696 20.7857 4.13049 14.7827 4.13049C8.77956 4.13049 3.91309 8.99696 3.91309 15.0001C3.91309 21.0032 8.77956 25.8696 14.7827 25.8696Z" fill="white"/>
<path id="Vector_2" d="M14.9489 29.3664C13.0608 29.3664 11.1727 29.3697 9.28417 29.3646C8.58913 29.3628 8.02217 29.0878 7.58239 28.5389C6.04204 26.6168 4.49613 24.6988 2.95209 22.7794C2.1174 21.7418 1.27809 20.7083 0.448026 19.6669C-0.0194919 19.0805 -0.0837697 18.4224 0.0845551 17.7031C0.792535 14.6822 1.4848 11.6576 2.18214 8.63445C2.32596 8.01193 2.46746 7.38849 2.61174 6.76645C2.77405 6.0671 3.2129 5.61354 3.85568 5.31823C4.71626 4.92297 5.56622 4.50505 6.4203 4.09591C8.62148 3.04112 10.8222 1.98541 13.0243 0.931077C13.4132 0.74502 13.8012 0.556186 14.197 0.386327C14.7755 0.13825 15.3582 0.170185 15.92 0.437701C17.8317 1.34809 19.7388 2.26866 21.6491 3.18229C23.1843 3.91633 24.7229 4.64297 26.2572 5.37889C26.8473 5.66167 27.2265 6.12449 27.3753 6.76784C27.8813 8.95793 28.3867 11.1481 28.8926 13.3382C29.239 14.8382 29.5835 16.3387 29.9345 17.8378C30.0945 18.5219 29.9631 19.1333 29.5224 19.6817C28.2637 21.2475 27.0073 22.8146 25.7499 24.3818C24.955 25.3727 24.1615 26.3641 23.3666 27.3545C23.0294 27.7748 22.6942 28.1964 22.3501 28.6111C21.9182 29.1318 21.3499 29.3641 20.6826 29.3651C18.7714 29.3678 16.8602 29.3664 14.9489 29.3664ZM22.7566 17.823C22.8223 17.8142 22.9374 17.8299 23.0128 17.7828C23.1959 17.668 23.3763 17.6731 23.5668 17.7328C23.8308 17.8156 24.094 17.9012 24.3571 17.9878C24.6415 18.0813 24.9194 18.2002 25.2098 18.2668C25.6283 18.3627 25.9955 18.0336 25.9627 17.6226C25.9432 17.3778 25.7323 17.1274 25.4475 17.063C25.2015 17.0075 24.9453 17.001 24.696 16.9585C24.2031 16.8738 23.6468 16.9927 23.2694 16.5238C23.2533 16.5035 23.214 16.4988 23.1843 16.4924C23.0433 16.4604 23.017 16.3822 23.0327 16.2378C23.1099 15.5237 23.1011 14.8086 22.9873 14.0991C22.807 12.9758 22.4324 11.9233 21.8105 10.9643C21.7795 10.9166 21.7425 10.8333 21.7629 10.7991C21.8873 10.5867 22.0047 10.3631 22.1693 10.184C22.3173 10.0229 22.5175 9.90723 22.7034 9.78549C23.0183 9.57906 23.3494 9.3958 23.6565 9.17871C23.8988 9.00745 23.9737 8.64741 23.859 8.38775C23.7601 8.16371 23.4817 8.00915 23.1982 8.08597C23.0147 8.13549 22.8348 8.25445 22.6914 8.38449C22.3622 8.68441 22.0408 8.99684 21.7457 9.33006C21.5043 9.60267 21.1617 9.58554 20.8643 9.6758C20.7751 9.7031 20.6077 9.46797 20.4745 9.35458C20.4102 9.29954 20.3409 9.25045 20.2766 9.19536C19.0729 8.1568 17.6805 7.53289 16.1129 7.29223C15.9529 7.26771 15.7628 7.3121 15.674 7.11262C15.606 6.95993 15.495 6.81089 15.4803 6.65258C15.4539 6.37119 15.4747 6.08332 15.495 5.79958C15.5219 5.42423 15.5843 5.05071 15.5982 4.67536C15.6079 4.41897 15.471 4.21486 15.2278 4.11026C14.9929 4.00936 14.7672 4.05241 14.5878 4.22967C14.3936 4.42128 14.3496 4.67493 14.3773 4.93689C14.4222 5.35715 14.4699 5.77784 14.5309 6.19623C14.5707 6.46745 14.4754 6.69006 14.3922 6.94232C14.2719 7.30658 14.019 7.26584 13.7656 7.30519C13.6666 7.32045 13.5681 7.3371 13.4701 7.35654C11.8405 7.68193 10.4254 8.41136 9.25317 9.59897C9.20691 9.64571 9.13339 9.71697 9.09039 9.70588C8.88 9.6531 8.6437 9.6198 8.47583 9.49806C8.17939 9.28332 7.92461 9.01071 7.655 8.75941C7.46404 8.58119 7.29709 8.37062 7.08574 8.22345C6.73291 7.97815 6.36113 8.04245 6.17061 8.33962C5.99626 8.61128 6.07856 9.00284 6.36804 9.22641C6.4957 9.32497 6.64183 9.39858 6.77361 9.49206C7.26009 9.8378 7.89457 9.99841 8.11374 10.6769C8.1697 10.8505 8.17387 10.9491 8.09291 11.0819C7.13896 12.6513 6.77917 14.3522 6.9637 16.1753C6.97248 16.26 6.96691 16.397 6.91652 16.429C6.64043 16.6062 6.42356 16.8932 6.05039 16.8997C5.85891 16.9029 5.66796 16.9348 5.47787 16.9608C5.13613 17.0075 4.78796 17.032 4.45591 17.1172C4.15487 17.1945 3.97822 17.5078 4.02215 17.7735C4.07302 18.0817 4.32967 18.3104 4.66678 18.2766C4.92943 18.2507 5.18561 18.1521 5.44183 18.0757C5.9727 17.9174 6.46839 17.5448 7.06726 17.8198C7.07374 17.8225 7.08344 17.8221 7.08991 17.8198C7.29061 17.7499 7.33548 17.8841 7.39004 18.0331C8.006 19.716 9.06683 21.0498 10.5498 22.0505C10.7237 22.1681 10.9544 22.2555 10.7889 22.5443C10.769 22.5786 10.8185 22.6471 10.8171 22.6994C10.8148 22.8031 10.83 22.9229 10.7843 23.0062C10.584 23.3696 10.3625 23.7218 10.1526 24.0795C10.0402 24.2711 9.90935 24.4577 9.83165 24.6636C9.70822 24.9895 9.84556 25.3408 10.1073 25.4606C10.4074 25.5985 10.7307 25.5009 10.9198 25.1811C11.028 24.9987 11.0863 24.7868 11.1681 24.5882C11.3873 24.0545 11.3989 23.4048 12.0065 23.0877C12.019 23.0812 12.0282 23.065 12.0347 23.0516C12.104 22.9007 12.2067 22.904 12.3556 22.9438C12.8375 23.0734 13.3198 23.2141 13.8109 23.2927C15.0368 23.4885 16.2493 23.3997 17.4368 23.0248C17.6574 22.9549 17.8844 22.8081 18.043 23.1219C18.0537 23.1432 18.1037 23.1414 18.124 23.1618C18.2197 23.2571 18.3497 23.3399 18.3982 23.4566C18.567 23.8606 18.702 24.279 18.8607 24.6877C18.9379 24.8872 19.0202 25.0899 19.1344 25.269C19.275 25.4884 19.5649 25.5583 19.8137 25.4713C20.0717 25.381 20.1758 25.2167 20.192 24.9275C20.2095 24.6099 20.038 24.3753 19.8872 24.1231C19.5839 23.6139 19.1103 23.1914 19.1774 22.4953C19.1959 22.3046 19.2223 22.2167 19.3628 22.1268C20.3788 21.4785 21.219 20.6467 21.8387 19.6146C22.1772 19.05 22.4431 18.4409 22.7566 17.823Z" fill="#3F70DD"/>
<path id="Vector_3" d="M10.4573 10.6756C10.682 10.4793 10.8822 10.2789 11.107 10.1123C11.9495 9.48748 12.8896 9.08574 13.9255 8.90661C14.1202 8.87283 14.2006 8.92652 14.1886 9.12692C14.1424 9.88735 14.1012 10.6478 14.0568 11.4078C14.0411 11.6767 14.0314 11.946 14.0018 12.2136C13.9574 12.6093 13.5944 12.8254 13.2434 12.6407C12.9525 12.488 12.6885 12.283 12.418 12.0932C11.8131 11.6688 11.2119 11.2393 10.6098 10.8107C10.5668 10.7811 10.5308 10.7417 10.4573 10.6756Z" fill="#3F70DD"/>
<path id="Vector_4" d="M21.4147 15.9722C21.0619 15.874 20.7229 15.7819 20.3849 15.6852C19.7125 15.4927 19.0406 15.2987 18.3691 15.1034C17.8309 14.947 17.6907 14.4411 18.0986 14.0649C18.8445 13.3771 19.6066 12.7069 20.3608 12.0275C20.4824 11.9182 20.55 11.9826 20.6119 12.0913C21.0161 12.8013 21.2949 13.5594 21.3939 14.3694C21.4512 14.8382 21.4341 15.3168 21.4475 15.7907C21.4484 15.8421 21.4295 15.893 21.4147 15.9722Z" fill="#3F70DD"/>
<path id="Vector_5" d="M18.4857 20.7426C18.3145 20.3316 18.1485 19.935 17.9844 19.5374C17.7342 18.9325 17.4882 18.3257 17.2347 17.7222C17.1483 17.5167 17.1617 17.3325 17.306 17.1617C17.4517 16.989 17.6269 16.9215 17.859 16.9622C18.8278 17.1325 19.799 17.2922 20.7687 17.4574C20.8588 17.4727 20.9471 17.4981 21.0341 17.5185C21.0133 18.3206 19.4383 20.326 18.4857 20.7426Z" fill="#3F70DD"/>
<path id="Vector_6" d="M9.47239 11.9349C9.92743 12.3399 10.358 12.7227 10.7876 13.1059C11.1547 13.4336 11.515 13.7696 11.8914 14.0857C12.0731 14.2385 12.1337 14.4171 12.1018 14.6369C12.0699 14.8554 11.9386 15.0012 11.7295 15.0646C11.2292 15.2159 10.727 15.3608 10.2253 15.5071C9.75308 15.645 9.28052 15.7811 8.80791 15.9181C8.66269 15.9602 8.53921 15.9912 8.52765 15.7616C8.46339 14.4694 8.71169 13.2498 9.35078 12.1178C9.38039 12.0659 9.41691 12.0178 9.47239 11.9349Z" fill="#3F70DD"/>
<path id="Vector_7" d="M19.4825 10.701C19.0127 11.0365 18.5511 11.367 18.0878 11.6961C17.6679 11.9941 17.2498 12.2959 16.8235 12.5847C16.4406 12.8439 16.0087 12.6338 15.9763 12.1709C15.9222 11.3971 15.8825 10.6218 15.8367 9.84754C15.8219 9.59436 15.8066 9.34119 15.7914 9.08849C15.7821 8.93806 15.8496 8.87328 15.9999 8.89967C17.2901 9.12597 18.4208 9.67906 19.39 10.5617C19.4127 10.5821 19.4321 10.6066 19.451 10.6306C19.4598 10.6418 19.4635 10.6579 19.4825 10.701Z" fill="#3F70DD"/>
<path id="Vector_8" d="M8.97388 17.5157C9.33088 17.4509 9.69109 17.3824 10.0527 17.3213C10.7417 17.2047 11.4317 17.0932 12.1207 16.977C12.5896 16.8979 12.9221 17.275 12.757 17.7295C12.5808 18.2132 12.3737 18.6862 12.1767 19.162C11.9737 19.6522 11.7665 20.1409 11.5607 20.6301C11.5491 20.6574 11.5297 20.6815 11.5154 20.7051C10.7505 20.5227 9.01827 18.3604 8.97388 17.5157Z" fill="#3F70DD"/>
<path id="Vector_9" d="M12.9438 21.4193C13.1843 20.9824 13.4123 20.5649 13.643 20.1484C13.9265 19.636 14.24 19.1385 14.4865 18.609C14.6747 18.2059 15.2638 18.1624 15.5025 18.603C15.9862 19.4972 16.4888 20.3812 16.9859 21.268C17.0548 21.391 17.0428 21.4725 16.8944 21.5045C16.4967 21.5901 16.1022 21.7169 15.6999 21.7511C14.8218 21.8257 13.9455 21.7933 13.0997 21.4957C13.0571 21.4813 13.0183 21.4563 12.9438 21.4193Z" fill="#3F70DD"/>
<path id="Vector_10" d="M15.0141 14.2366C15.1861 14.2616 15.4099 14.2273 15.5195 14.3236C15.7466 14.5231 15.9149 14.7906 16.1022 15.0336C16.1202 15.0572 16.1096 15.1076 16.1036 15.1442C16.0874 15.2349 16.0494 15.3252 16.0499 15.4154C16.0532 16.0824 15.5403 16.2356 15.0594 16.4188C15.0145 16.436 14.9544 16.4248 14.905 16.4133C14.8536 16.4013 14.8055 16.3725 14.757 16.3499C13.8747 15.9421 14.1433 16.1611 13.9094 15.2553C13.8807 15.1447 13.9528 14.998 14.0051 14.8799C14.0439 14.7915 14.1239 14.7207 14.1882 14.6439C14.5073 14.2593 14.5073 14.2593 15.0141 14.2366Z" fill="#3F70DD"/>
</g>
<defs>
<clipPath id="clip0_2_1578">
<rect width="30" height="29.5652" fill="white" transform="translate(0 0.217407)"/>
</clipPath>
</defs>
</svg>
