<svg width="30" height="12" viewBox="0 0 30 12" fill="none" xmlns="http://www.w3.org/2000/svg">
<g id="oktaDark.35063967.svg" clip-path="url(#clip0_2_1626)">
<path id="Vector" d="M3.7725 3.47876C1.6875 3.47876 0 5.1695 0 7.25852C0 9.34753 1.6875 11.0383 3.7725 11.0383C5.8575 11.0383 7.545 9.34753 7.545 7.25852C7.545 5.1695 5.8575 3.47876 3.7725 3.47876ZM3.7725 9.15216C2.73 9.15216 1.8825 8.30303 1.8825 7.25852C1.8825 6.21402 2.73 5.36488 3.7725 5.36488C4.815 5.36488 5.6625 6.21402 5.6625 7.25852C5.6625 8.30303 4.815 9.15216 3.7725 9.15216Z" fill="#3F70DD"/>
<path id="Vector_2" d="M10.4024 8.52855C10.4024 8.22798 10.7624 8.0852 10.9724 8.2956C11.9174 9.25745 13.4775 10.9106 13.4849 10.9181C13.5075 10.9407 13.5299 10.9783 13.6199 11.0083C13.6575 11.0233 13.7175 11.0233 13.7849 11.0233H15.4875C15.7949 11.0233 15.8849 10.6702 15.7425 10.4898L12.9225 7.59676L12.7725 7.44646C12.4499 7.06323 12.4875 6.91294 12.8549 6.5222L15.0899 4.01988C15.2325 3.83954 15.1425 3.49388 14.8275 3.49388H13.2825C13.2225 3.49388 13.1775 3.49388 13.1325 3.5089C13.0425 3.53896 13.0049 3.56901 12.9825 3.59907C12.9749 3.60659 11.7374 4.94416 10.9724 5.76323C10.7624 5.98867 10.3874 5.83838 10.3874 5.53028V1.23954C10.3874 1.02162 10.2074 0.938965 10.0649 0.938965H8.80492C8.58742 0.938965 8.48242 1.08174 8.48242 1.20948V10.7228C8.48242 10.9407 8.66242 11.0008 8.81242 11.0008H10.0724C10.2674 11.0008 10.3949 10.858 10.3949 10.7153V10.6176V8.52855H10.4024Z" fill="#3F70DD"/>
<path id="Vector_3" d="M20.6923 10.6777L20.5573 9.41526C20.5423 9.24242 20.3773 9.1222 20.2049 9.15224C20.1073 9.16728 20.0099 9.17479 19.9123 9.17479C18.9073 9.17479 18.0899 8.38577 18.0299 7.38635C18.0299 7.35629 18.0299 7.31872 18.0299 7.28115V5.73317C18.0299 5.53028 18.1799 5.36496 18.3823 5.36496H20.0699C20.1899 5.36496 20.3699 5.25977 20.3699 5.04185V3.84705C20.3699 3.61411 20.2199 3.49388 20.0849 3.49388H18.3823C18.1873 3.49388 18.0299 3.3511 18.0223 3.15572V1.23954C18.0223 1.11931 17.9323 0.938965 17.6999 0.938965H16.4473C16.2899 0.938965 16.1399 1.03665 16.1399 1.23203C16.1399 1.23203 16.1399 7.35629 16.1399 7.38635C16.1923 9.43028 17.8649 11.0609 19.9123 11.0609C20.0849 11.0609 20.2499 11.0459 20.4149 11.0233C20.5949 11.0008 20.7149 10.8505 20.6923 10.6777Z" fill="#3F70DD"/>
<path id="Vector_4" d="M29.7826 9.09224C28.7176 9.09224 28.5526 8.70901 28.5526 7.27374C28.5526 7.26623 28.5526 7.26623 28.5526 7.25872V3.80959C28.5526 3.68936 28.4626 3.48647 28.2226 3.48647H26.9626C26.805 3.48647 26.6326 3.61422 26.6326 3.80959V3.96739C26.085 3.65179 25.4476 3.47144 24.7726 3.47144C22.6876 3.47144 21 5.16219 21 7.2512C21 9.34022 22.6876 11.031 24.7726 11.031C25.71 11.031 26.565 10.6853 27.225 10.1217C27.5776 10.6628 28.1476 11.0234 29.04 11.031C29.19 11.031 30 11.061 30 10.6778V9.3327C30 9.21998 29.91 9.09224 29.7826 9.09224ZM24.78 9.15235C23.7376 9.15235 22.89 8.30323 22.89 7.25872C22.89 6.2142 23.7376 5.36508 24.78 5.36508C25.8226 5.36508 26.67 6.2142 26.67 7.25872C26.6626 8.30323 25.815 9.15235 24.78 9.15235Z" fill="#3F70DD"/>
</g>
<defs>
<clipPath id="clip0_2_1626">
<rect width="30" height="10.122" fill="white" transform="translate(0 0.938965)"/>
</clipPath>
</defs>
</svg>
