<svg width="151" height="40" viewBox="0 0 151 40" fill="none" xmlns="http://www.w3.org/2000/svg">
<g id="Layer_1-2">
<g id="Group">
<g id="Group_2">
<path id="Vector" d="M0 0.70752H19.2923V19.9998C8.65665 19.959 0.0423308 11.3431 0 0.70752Z" fill="#FF7596"/>
<path id="Vector_2" d="M19.2921 39.2938V20H38.7461C38.7038 30.6356 30.0169 39.2514 19.2921 39.2923V39.2938Z" fill="#002733"/>
<path id="Vector_3" d="M38.7461 20H19.2921V0.707689C19.3193 0.706177 19.345 0.706177 19.3722 0.706177C30.0456 0.706177 38.7038 9.33713 38.7461 20Z" fill="#00FFB2"/>
</g>
<g id="Group_3">
<path id="Vector_4" d="M59.629 10.0463H55.8177V14.0254H59.629C61.5339 14.0254 62.6405 15.2787 62.6405 17.0127C62.6405 18.7468 61.5339 19.9698 59.629 19.9698H55.8177V14.0254H51.8341V29.9523H55.8177V23.9534H59.629C63.6973 23.9534 66.6242 21.022 66.6242 17.0127C66.6242 13.0034 63.6958 10.0463 59.629 10.0463Z" fill="#002733"/>
<path id="Vector_5" d="M78.2563 10.0463H74.5584L65.3408 29.9523H69.7236L71.1704 26.7972H81.6412L83.088 29.9523H87.4708L78.2547 10.0463H78.2563ZM73.0239 22.8135L76.4058 15.5069L79.7923 22.8135H73.0239Z" fill="#002733"/>
<path id="Vector_6" d="M107.976 10.0463V29.9523H104.506L93.7539 16.8706V29.9523H89.7733V10.0463H93.2444L103.992 23.1295V10.0463H107.976Z" fill="#002733"/>
<path id="Vector_7" d="M119.405 10.0463H112.181V25.9732H116.16V14.0269H119.403C122.818 14.0269 125.178 16.5592 125.178 20.0001C125.178 23.4409 122.818 25.9732 119.403 25.9732H116.16V29.9523H119.403C125.036 29.9523 129.159 25.7449 129.159 20.0001C129.159 14.2552 125.036 10.0478 119.403 10.0478L119.405 10.0463Z" fill="#002733"/>
<path id="Vector_8" d="M141.048 10.0463C135.36 10.0463 131.095 14.3111 131.095 19.9985C131.095 25.686 135.362 29.9508 141.048 29.9508C146.734 29.9508 151 25.686 151 19.9985C151 14.3111 146.734 10.0463 141.048 10.0463ZM141.048 25.9732C137.548 25.9732 135.075 23.4697 135.075 20.0001C135.075 16.5304 137.548 14.0269 141.048 14.0269C144.548 14.0269 147.021 16.5002 147.021 20.0001C147.021 23.4999 144.517 25.9732 141.048 25.9732Z" fill="#002733"/>
</g>
</g>
</g>
</svg>
